Units are S.I. units (second, meters, Newtons, ...)
Angles are in degrees.
name squat
datarows 21
datacolumns 15
range 0  10
endheader
time exo_pelvis_tx exo_pelvis_ty exo_pelvis_tz exo_pelvis_tilt exo_pelvis_list exo_pelvis_rotation exo_hip_r exo_hip_l exo_knee_r exo_knee_l r_ankle_coupling l_ankle_coupling r_foot l_foot 
0.000000	-0.345526	0.945373	-0.000002	0.000000	0.000000	0.000000	-4.991319	-4.992626	2.132662	2.135478	2.858654	2.857152	0.000111	-0.000097
0.500000	-0.343923	0.945141	-0.000079	0.000000	0.000000	0.000000	39.683080	-2.756703	-50.715110	-2.994901	10.031340	5.750904	0.005221	-0.005220
1.000000	-0.265464	0.934682	-0.000010	0.000000	0.000000	0.000000	40.483310	-10.291350	-57.019660	-0.424486	16.536350	10.715830	0.000675	-0.000664
1.500000	-0.246058	0.930838	-0.000010	0.000000	0.000000	0.000000	30.202490	-11.722430	-36.716230	-0.558213	6.512590	12.279500	-0.000000	0.000000
2.000000	-0.220276	0.924901	0.000010	0.000000	0.000000	0.000000	21.898640	-13.787210	-23.547990	-0.411591	1.881960	14.197650	0.001196	-0.000000
2.500000	-0.070262	0.934901	0.000000	0.000000	0.000000	0.000000	7.027170	39.683080	-18.263890	-50.715110	10.935560	10.031340	0.000000	0.000000
3.000000	-0.044285	0.936838	0.000000	0.000000	0.000000	0.000000	2.555720	40.483310	-12.979790	-57.019660	10.422923	16.536350	0.000000	0.000000
3.500000	0.018276	0.938682	0.000000	0.000000	0.000000	0.000000	-5.615700	30.202490	-5.695690	-36.716230	11.310287	6.512590	0.000000	0.000000
4.000000	0.090258	0.924373	0.000000	0.000000	0.000000	0.000000	-13.787210	21.898640	-0.411591	-23.547990	14.197650	1.881960	0.000000	0.000000
4.500000	0.238216	0.932373	0.000000	0.000000	0.000000	0.000000	39.683080	7.027170	-50.715110	-18.263890	10.031340	10.935560	0.000000	0.000000
5.000000	0.268255	0.933373	0.000000	0.000000	0.000000	0.000000	40.483310	2.555720	-57.019660	-12.979790	16.536350	10.422923	0.000000	0.000000
5.500000	0.330254	0.935373	0.000000	0.000000	0.000000	0.000000	30.202490	-5.615700	-36.716230	-5.695690	6.512590	11.310287	0.000000	0.000000
6.000000	0.399045	0.926373	0.000000	0.000000	0.000000	0.000000	21.898640	-13.787210	-23.547990	-0.411591	1.881960	14.197650	0.000000	0.000000
6.500000	0.553045	0.933373	0.000000	0.000000	0.000000	0.000000	7.027170	39.683080	-18.263890	-50.715110	10.935560	10.031340	0.000000	0.000000
7.000000	0.580045	0.937373	0.000000	0.000000	0.000000	0.000000	2.555720	40.483310	-12.979790	-57.019660	10.422923	16.536350	0.000000	0.000000
7.500000	0.640045	0.932373	0.000000	0.000000	0.000000	0.000000	-5.615700	30.202490	-5.695690	-36.716230	11.310287	6.512590	0.000000	0.000000
8.000000	0.718045	0.925373	0.000000	0.000000	0.000000	0.000000	-13.787210	21.898640	-0.411591	-23.547990	14.197650	1.881960	0.000000	0.000000
8.500000	0.818045	0.936373	0.000000	0.000000	0.000000	0.000000	39.683080	7.027170	-50.715110	-18.263890	10.031340	10.935560	0.000000	0.000000
9.000000	0.840045	0.937373	0.000000	0.000000	0.000000	0.000000	40.483310	2.555720	-57.019660	-12.979790	16.536350	10.422923	0.000000	0.000000
9.500000	0.908045	0.932373	0.000000	0.000000	0.000000	0.000000	30.202490	-5.615700	-36.716230	-5.695690	6.512590	11.310287	0.000000	0.000000
10.000000	0.991045	0.926373	0.000000	0.000000	0.000000	0.000000	21.898640	-13.787210	-23.547990	-0.411591	1.881960	14.197650	0.000000	0.000000
